<?xml version="1.0" encoding="UTF-8" standalone="no"?>
<svg
   xmlns:dc="http://purl.org/dc/elements/1.1/"
   xmlns:cc="http://creativecommons.org/ns#"
   xmlns:rdf="http://www.w3.org/1999/02/22-rdf-syntax-ns#"
   xmlns:svg="http://www.w3.org/2000/svg"
   xmlns="http://www.w3.org/2000/svg"
   xmlns:sodipodi="http://sodipodi.sourceforge.net/DTD/sodipodi-0.dtd"
   xmlns:inkscape="http://www.inkscape.org/namespaces/inkscape"
   width="48"
   height="48"
   viewBox="0 0 48 48"
   id="svg2"
   version="1.1"
   inkscape:version="0.48.4 r9939"
   sodipodi:docname="ic_bt_scan_disabled_48px.svg">
  <metadata
     id="metadata10">
    <rdf:RDF>
      <cc:Work
         rdf:about="">
        <dc:format>image/svg+xml</dc:format>
        <dc:type
           rdf:resource="http://purl.org/dc/dcmitype/StillImage" />
        <dc:title></dc:title>
      </cc:Work>
    </rdf:RDF>
  </metadata>
  <defs
     id="defs8" />
  <sodipodi:namedview
     pagecolor="#ffffff"
     bordercolor="#666666"
     borderopacity="1"
     objecttolerance="10"
     gridtolerance="10"
     guidetolerance="10"
     inkscape:pageopacity="0"
     inkscape:pageshadow="2"
     inkscape:window-width="1007"
     inkscape:window-height="795"
     id="namedview6"
     showgrid="false"
     inkscape:zoom="1.7383042"
     inkscape:cx="134.45914"
     inkscape:cy="-86.066095"
     inkscape:window-x="381"
     inkscape:window-y="86"
     inkscape:window-maximized="0"
     inkscape:current-layer="svg2" />
  <path
     d="m 181.01695,32.033898 c -9.94,0 -18,8.06 -18,18 l -6,0 8,8 8,-8 -6,0 c 0,-7.73 6.27,-14 14,-14 7.73,0 14,6.27 14,14 0,7.73 -6.27,14 -14,14 -3.03,0 -5.82,-0.97 -8.12,-2.61 l -2.83,2.87 c 3.04,2.34 6.83,3.74 10.95,3.74 9.94,0 18,-8.06 18,-18 0,-9.94 -8.06,-18 -18,-18 z"
     id="path4"
     inkscape:connector-curvature="0"
     sodipodi:nodetypes="scccccsssccsss"
     style="fill:#4d4d4d" />
  <path
     d="m 188.7389,44.812997 -6.93486,-6.934864 -1.21558,0 0,9.220148 -5.57342,-5.573419 -1.72004,1.720041 6.78899,6.788995 -6.78899,6.788994 1.72004,1.720041 5.57342,-5.573418 0,9.220147 1.21558,0 6.93486,-6.934863 -5.21482,-5.220901 z m -5.71929,-2.279206 2.28529,2.285284 -2.28529,2.279206 z m 2.28529,12.721008 -2.28529,2.279205 0,-4.564489 z"
     id="path4-5"
     inkscape:connector-curvature="0"
     sodipodi:nodetypes="ccccccccccccccccccccccc" />
  <g
     style="fill:#b3b3b3;stroke:none"
     transform="matrix(0.00820678,0,0,-0.00820678,118.62002,26.602667)"
     id="g6">
    <path
       inkscape:connector-curvature="0"
       d="M 2330,5109 C 1856,5066 1404,4891 1013,4599 887,4505 615,4233 521,4107 197,3673 23,3182 3,2646 -19,2061 162,1493 522,1012 611,893 824,673 945,575 1155,405 1469,228 1710,145 2533,-138 3411,0 4108,522 c 119,89 339,302 437,423 170,210 347,524 430,765 160,464 187,945 79,1424 -80,358 -271,748 -509,1041 -98,121 -318,334 -437,423 -518,388 -1147,569 -1778,511 z m 410,-203 c 58,-3 155,-14 215,-25 897,-157 1616,-801 1869,-1674 61,-209 86,-402 87,-647 0,-263 -32,-474 -108,-712 C 4689,1487 4504,1181 4232,906 3933,603 3584,400 3166,286 2777,179 2303,183 1913,296 1034,551 387,1279 235,2185 c -35,207 -35,542 0,751 168,1005 944,1780 1950,1949 104,18 327,33 405,28 25,-1 92,-5 150,-7 z"
       id="path8"
       style="fill:#b3b3b3" />
    <path
       inkscape:connector-curvature="0"
       d="m 2467,4764 c -4,-4 -7,-145 -7,-314 l 0,-307 -73,-6 c -223,-19 -500,-119 -696,-250 -83,-56 -84,-57 -128,-46 -90,23 -183,-8 -250,-85 -58,-66 -77,-151 -53,-235 9,-32 6,-41 -41,-113 -71,-111 -124,-224 -168,-363 -39,-121 -71,-276 -71,-347 l 0,-38 -312,-2 -313,-3 0,-95 0,-95 311,-3 311,-2 6,-74 c 30,-354 232,-751 507,-997 250,-225 593,-380 892,-405 l 78,-7 2,-311 3,-311 95,0 95,0 3,311 2,311 78,7 c 205,17 487,116 671,236 l 64,41 51,-23 c 41,-18 69,-23 141,-23 82,0 97,3 157,33 77,38 130,92 167,171 22,48 26,70 26,147 0,82 -3,96 -33,155 l -33,65 44,94 c 76,162 131,358 143,502 l 7,78 311,2 311,3 0,95 0,95 -311,3 -311,2 -7,78 c -12,143 -67,339 -141,497 l -42,91 254,139 c 139,76 253,144 253,150 0,21 -156,250 -232,340 -147,173 -295,304 -483,427 -106,70 -328,188 -352,188 -4,0 -57,-121 -117,-268 -60,-147 -110,-268 -111,-269 0,-2 -41,11 -91,28 -111,38 -242,67 -339,76 l -75,6 -2,311 -3,311 -90,3 c -50,1 -94,0 -98,-4 z m -7,-1149 0,-375 -27,-6 c -145,-32 -248,-88 -353,-194 -106,-105 -162,-208 -194,-352 -6,-27 -9,-28 -69,-28 -60,0 -63,2 -84,34 -88,137 -303,142 -396,9 l -31,-43 -87,0 -87,0 5,48 c 21,207 119,484 225,634 18,26 20,26 53,12 41,-17 123,-18 176,-2 55,16 118,73 145,132 28,60 32,148 9,203 -15,36 -15,38 7,55 48,36 207,119 296,153 104,40 222,70 327,84 39,4 73,9 78,10 4,0 7,-168 7,-374 z m 370,349 c 128,-23 273,-73 267,-93 -5,-18 -269,-664 -274,-670 -2,-3 -27,3 -56,11 -28,9 -64,19 -79,22 l -28,6 0,374 0,374 43,-5 c 23,-2 80,-11 127,-19 z m 1089,-962 c 29,-87 53,-202 64,-299 l 5,-43 -374,0 -374,0 -6,28 c -11,51 -37,127 -55,164 l -19,37 63,35 c 34,19 181,100 327,180 l 265,146 37,-77 c 20,-43 51,-120 67,-171 z m -1459,-56 0,-133 -49,-30 c -31,-19 -59,-48 -76,-77 l -27,-46 -133,0 -134,0 15,53 c 46,156 176,290 334,344 36,12 66,23 68,23 1,0 2,-60 2,-134 z m 584,-180 c 9,-24 21,-58 26,-75 l 9,-32 -137,3 c -173,4 -176,12 -32,90 58,32 108,58 111,58 4,0 14,-20 23,-44 z M 1338,2416 c 95,-132 307,-127 395,10 21,32 24,34 84,34 60,0 63,-1 69,-27 32,-145 88,-248 194,-353 105,-106 208,-162 353,-194 l 27,-6 0,-375 0,-375 -22,4 c -13,3 -50,8 -83,11 -33,4 -101,18 -152,31 -453,117 -817,445 -983,886 -37,99 -73,250 -83,351 l -5,47 88,0 87,0 31,-44 z m 999,-5 c 19,-31 48,-59 77,-76 l 46,-27 0,-133 0,-133 -37,10 c -167,44 -319,192 -367,356 l -15,52 133,0 133,0 30,-49 z m 731,12 c -46,-171 -200,-325 -370,-371 l -38,-10 0,132 0,133 49,30 c 31,19 59,48 76,77 l 27,46 133,0 133,0 -10,-37 z m 915,-5 c -18,-160 -63,-324 -127,-463 l -35,-75 -38,17 c -57,24 -174,21 -245,-6 -79,-30 -150,-97 -190,-178 -28,-57 -32,-75 -32,-147 0,-63 5,-92 22,-130 12,-27 22,-52 22,-56 0,-13 -153,-99 -241,-136 -131,-55 -247,-85 -421,-108 l -38,-5 0,374 0,375 28,6 c 144,32 247,88 352,194 106,105 162,208 194,353 l 6,27 374,0 374,0 -5,-42 z"
       id="path10"
       style="fill:#b3b3b3" />
  </g>
  <g
     id="g3078"
     transform="matrix(0.0088488,0,0,-0.0088488,2.8586738,46.662114)"
     style="fill:#000000;stroke:none">
    <path
       id="path3080"
       d="m 3683,4848 c -50,-90 -100,-182 -112,-205 -12,-24 -24,-43 -27,-43 -3,0 -64,27 -136,61 -326,152 -640,220 -1018,221 -387,0 -701,-72 -1045,-242 C 724,4334 263,3772 91,3109 32,2878 16,2756 16,2515 15,2228 39,2054 115,1798 266,1287 623,811 1075,514 1369,322 1586,233 1940,160 2706,4 3517,251 4084,815 c 438,435 696,1053 696,1670 0,305 -39,523 -150,833 -22,62 -40,119 -40,126 0,8 43,33 98,56 301,131 391,172 408,185 18,13 2,31 -221,255 -250,251 -1082,1063 -1095,1068 -4,1 -48,-71 -97,-160 z M 2610,4379 c 192,-21 403,-80 588,-164 62,-29 97,-50 96,-59 -2,-14 -378,-702 -393,-718 -3,-4 -31,4 -61,18 -221,103 -485,130 -710,73 -685,-174 -1018,-918 -694,-1549 194,-379 639,-613 1060,-560 326,41 603,204 769,455 208,312 245,673 108,1032 -3,8 25,26 74,49 107,49 643,280 670,288 21,7 25,-1 66,-131 108,-335 131,-612 76,-935 -26,-150 -57,-261 -110,-387 -105,-249 -233,-445 -404,-617 -372,-376 -821,-564 -1348,-564 -320,0 -545,55 -863,210 -240,117 -436,275 -616,499 -237,293 -375,651 -409,1062 -37,437 105,897 397,1287 165,219 394,402 666,531 360,171 653,222 1038,180 z m 19,-1078 c 84,-25 151,-57 151,-72 0,-6 -69,-135 -154,-287 -84,-153 -172,-315 -195,-361 l -43,-84 29,8 c 15,3 66,24 113,45 81,37 530,237 597,266 37,16 34,19 61,-66 62,-193 55,-400 -20,-590 -86,-217 -283,-403 -510,-480 -220,-75 -431,-59 -653,49 -225,110 -378,297 -442,539 -34,129 -36,306 -4,427 70,267 279,499 527,586 133,46 153,49 314,45 121,-3 171,-8 229,-25 z"
       inkscape:connector-curvature="0" />
  </g>
</svg>
