<?xml version="1.0" encoding="UTF-8" standalone="no"?>
<svg
   xmlns:dc="http://purl.org/dc/elements/1.1/"
   xmlns:cc="http://creativecommons.org/ns#"
   xmlns:rdf="http://www.w3.org/1999/02/22-rdf-syntax-ns#"
   xmlns:svg="http://www.w3.org/2000/svg"
   xmlns="http://www.w3.org/2000/svg"
   xmlns:sodipodi="http://sodipodi.sourceforge.net/DTD/sodipodi-0.dtd"
   xmlns:inkscape="http://www.inkscape.org/namespaces/inkscape"
   width="48"
   height="48"
   viewBox="0 0 48 48"
   id="svg2"
   version="1.1"
   inkscape:version="0.48.4 r9939"
   sodipodi:docname="ic_bt_scan_48px.svg">
  <metadata
     id="metadata10">
    <rdf:RDF>
      <cc:Work
         rdf:about="">
        <dc:format>image/svg+xml</dc:format>
        <dc:type
           rdf:resource="http://purl.org/dc/dcmitype/StillImage" />
        <dc:title />
      </cc:Work>
    </rdf:RDF>
  </metadata>
  <defs
     id="defs8" />
  <sodipodi:namedview
     pagecolor="#ffffff"
     bordercolor="#666666"
     borderopacity="1"
     objecttolerance="10"
     gridtolerance="10"
     guidetolerance="10"
     inkscape:pageopacity="0"
     inkscape:pageshadow="2"
     inkscape:window-width="1105"
     inkscape:window-height="841"
     id="namedview6"
     showgrid="false"
     inkscape:zoom="9.8333335"
     inkscape:cx="16.844548"
     inkscape:cy="17.119979"
     inkscape:window-x="79"
     inkscape:window-y="30"
     inkscape:window-maximized="0"
     inkscape:current-layer="svg2" />
  <path
     d="M 24 6 C 13.91 6 6.29 9.69875 0 14.46875 L 24 44 L 48 14.5 C 41.71 9.74 34.09 6 24 6 z M 23.65625 10.1875 L 24.625 10.1875 L 30.25 15.78125 L 26.03125 20 L 30.25 24.21875 L 24.625 29.8125 L 23.65625 29.8125 L 23.65625 22.375 L 19.15625 26.875 L 17.75 25.46875 L 23.25 20 L 17.75 14.53125 L 19.15625 13.125 L 23.65625 17.625 L 23.65625 10.1875 z M 25.625 13.9375 L 25.625 17.625 L 27.46875 15.78125 L 25.625 13.9375 z M 25.625 22.375 L 25.625 26.0625 L 27.46875 24.21875 L 25.625 22.375 z "
     id="path4" />
</svg>
